<svg width="18" height="15" viewBox="0 0 18 15" fill="none" xmlns="http://www.w3.org/2000/svg">
<path d="M11.9091 14V12.5556C11.9091 11.7894 11.6026 11.0546 11.0571 10.5128C10.5115 9.97105 9.77153 9.66667 9 9.66667H3.90909C3.13755 9.66667 2.39761 9.97105 1.85205 10.5128C1.30649 11.0546 1 11.7894 1 12.5556V14M14.8182 4.61111V8.94444M17 6.77778H12.6364M9.36364 3.88889C9.36364 5.48439 8.0612 6.77778 6.45455 6.77778C4.84789 6.77778 3.54545 5.48439 3.54545 3.88889C3.54545 2.2934 4.84789 1 6.45455 1C8.0612 1 9.36364 2.2934 9.36364 3.88889Z" stroke="#1E1E1E" stroke-width="1.5" stroke-linecap="round" stroke-linejoin="round"/>
</svg>
