<svg width="15" height="16" viewBox="0 0 15 16" fill="none" xmlns="http://www.w3.org/2000/svg">
<path d="M3.23297 6.50968C3.34125 6.57922 3.42391 6.68865 3.45449 6.82903L4.58401 12.0138L9.76877 10.8843C10.0402 10.8252 10.3137 11.0009 10.3728 11.2723C10.432 11.5437 10.2563 11.8172 9.9849 11.8763L4.30411 13.1139C4.0327 13.173 3.75916 12.9973 3.70003 12.7259L2.46247 7.04512C2.40334 6.77372 2.57902 6.50018 2.85041 6.44107C2.9851 6.40683 3.12469 6.44014 3.23297 6.50968Z" fill="white"/>
<path d="M10.6925 2.50222C10.9262 2.65228 10.9955 2.97048 10.8454 3.20413L4.68563 12.7952C4.53557 13.0289 4.21737 13.0982 3.98372 12.9482C3.75007 12.7981 3.68075 12.4799 3.83081 12.2462L9.99059 2.65513C10.1407 2.42148 10.4589 2.35216 10.6925 2.50222Z" fill="white"/>
</svg>
