<svg width="15" height="16" viewBox="0 0 15 16" fill="none" xmlns="http://www.w3.org/2000/svg">
<path d="M11.3652 9.08993C11.2579 9.01895 11.1767 8.90842 11.148 8.76764L10.0881 3.56818L4.8887 4.62803C4.61653 4.68351 4.34536 4.50418 4.28988 4.232C4.23439 3.95985 4.41372 3.68869 4.6859 3.63321L10.3828 2.47194C10.655 2.41646 10.9261 2.59579 10.9816 2.86797L12.1428 8.56487C12.1983 8.83704 12.019 9.10821 11.7468 9.16366C11.6117 9.1961 11.4726 9.16092 11.3652 9.08993Z" fill="white"/>
<path d="M3.85274 12.9985C3.62112 12.8453 3.55608 12.5262 3.70926 12.2946L9.99714 2.78697C10.1503 2.55535 10.4694 2.49031 10.701 2.64349C10.9327 2.79667 10.9977 3.11577 10.8445 3.34739L4.55664 12.855C4.40346 13.0866 4.08436 13.1517 3.85274 12.9985Z" fill="white"/>
</svg>
