<svg width="18" height="22" viewBox="0 0 18 22" fill="none" xmlns="http://www.w3.org/2000/svg">
<path d="M9.046 1.9707C5.73597 1.9707 3.04597 4.6607 3.04597 7.9707V10.8607C3.04597 11.4707 2.78597 12.4007 2.47597 12.9207L1.32597 14.8307C0.615967 16.0107 1.10597 17.3207 2.40597 17.7607C6.71597 19.2007 11.366 19.2007 15.676 17.7607C16.886 17.3607 17.416 15.9307 16.756 14.8307L15.606 12.9207C15.306 12.4007 15.046 11.4707 15.046 10.8607V7.9707C15.046 4.6707 12.346 1.9707 9.046 1.9707Z" stroke="#292D32" stroke-width="1.5" stroke-miterlimit="10" stroke-linecap="round"/>
<path d="M10.8963 2.26C10.5863 2.17 10.2663 2.1 9.93629 2.06C8.97629 1.94 8.05629 2.01 7.19629 2.26C7.48629 1.52 8.20629 1 9.04629 1C9.88629 1 10.6063 1.52 10.8963 2.26Z" stroke="#292D32" stroke-width="1.5" stroke-miterlimit="10" stroke-linecap="round" stroke-linejoin="round"/>
<path d="M12.0459 18.1211C12.0459 19.7711 10.6959 21.1211 9.04588 21.1211C8.22588 21.1211 7.46588 20.7811 6.9259 20.2411C6.3859 19.7011 6.0459 18.9411 6.0459 18.1211" stroke="#292D32" stroke-width="1.5" stroke-miterlimit="10"/>
</svg>
