<svg width="20" height="22" viewBox="0 0 20 22" fill="none" xmlns="http://www.w3.org/2000/svg">
<path d="M19 4.98047C15.67 4.65047 12.32 4.48047 8.98 4.48047C7 4.48047 5.02 4.58047 3.04 4.78047L1 4.98047" stroke="#818181" stroke-width="1.5" stroke-linecap="round" stroke-linejoin="round"/>
<path d="M6.5 3.97L6.72 2.66C6.88 1.71 7 1 8.69 1H11.31C13 1 13.13 1.75 13.28 2.67L13.5 3.97" stroke="#818181" stroke-width="1.5" stroke-linecap="round" stroke-linejoin="round"/>
<path d="M16.8504 8.14062L16.2004 18.2106C16.0904 19.7806 16.0004 21.0006 13.2104 21.0006H6.79039C4.00039 21.0006 3.91039 19.7806 3.80039 18.2106L3.15039 8.14062" stroke="#818181" stroke-width="1.5" stroke-linecap="round" stroke-linejoin="round"/>
<path d="M8.33008 15.5H11.6601" stroke="#818181" stroke-width="1.5" stroke-linecap="round" stroke-linejoin="round"/>
<path d="M7.5 11.5H12.5" stroke="#818181" stroke-width="1.5" stroke-linecap="round" stroke-linejoin="round"/>
</svg>
