<svg width="19" height="20" viewBox="0 0 19 20" fill="none" xmlns="http://www.w3.org/2000/svg">
<path d="M7.14413 9C7.05404 8.99098 6.94593 8.99098 6.84683 9C4.7027 8.92785 3 7.16911 3 5.00451C3 2.79481 4.78378 1 6.99998 1C9.20722 1 11 2.79481 11 5.00451C10.991 7.16911 9.2883 8.92785 7.14413 9Z" stroke="#292D32" stroke-width="1.5" stroke-linecap="round" stroke-linejoin="round"/>
<path d="M13.1432 3C15.281 3 17 4.34571 17 6C17 7.62 15.3471 8.94 13.2865 9C13.1983 8.99143 13.0992 8.99143 13 9" stroke="#292D32" stroke-width="1.5" stroke-linecap="round" stroke-linejoin="round"/>
<path d="M2.59677 12.2734C0.467743 13.7765 0.467743 16.2259 2.59677 17.7196C5.01612 19.4268 8.98388 19.4268 11.4032 17.7196C13.5323 16.2166 13.5323 13.7672 11.4032 12.2734C8.99268 10.5755 5.02492 10.5755 2.59677 12.2734Z" stroke="#292D32" stroke-width="1.5" stroke-linecap="round" stroke-linejoin="round"/>
<path d="M16 17C16.4601 16.875 16.8946 16.6333 17.2524 16.275C18.2492 15.3 18.2492 13.6917 17.2524 12.7167C16.901 12.3667 16.4728 12.1333 16.0192 12" stroke="#292D32" stroke-width="1.5" stroke-linecap="round" stroke-linejoin="round"/>
</svg>
