<svg width="22" height="22" viewBox="0 0 22 22" fill="none" xmlns="http://www.w3.org/2000/svg">
<path d="M9.85 21.5H5.65C1.74 21.5 0 19.76 0 15.85V11.65C0 7.74 1.74 6 5.65 6H9.85C13.76 6 15.5 7.74 15.5 11.65V15.85C15.5 19.76 13.76 21.5 9.85 21.5ZM5.65 7.5C2.55 7.5 1.5 8.55 1.5 11.65V15.85C1.5 18.95 2.55 20 5.65 20H9.85C12.95 20 14 18.95 14 15.85V11.65C14 8.55 12.95 7.5 9.85 7.5H5.65Z" fill="#818181"/>
<path d="M15.85 15.5H14.75C14.34 15.5 14 15.16 14 14.75V11.65C14 8.55 12.95 7.5 9.85 7.5H6.75C6.34 7.5 6 7.16 6 6.75V5.65C6 1.74 7.74 0 11.65 0H15.85C19.76 0 21.5 1.74 21.5 5.65V9.85C21.5 13.76 19.76 15.5 15.85 15.5ZM15.5 14H15.85C18.95 14 20 12.95 20 9.85V5.65C20 2.55 18.95 1.5 15.85 1.5H11.65C8.55 1.5 7.5 2.55 7.5 5.65V6H9.85C13.76 6 15.5 7.74 15.5 11.65V14Z" fill="#818181"/>
</svg>
