<svg width="21" height="20" viewBox="0 0 21 20" fill="none" xmlns="http://www.w3.org/2000/svg">
<path d="M18.9336 4.8183L12.8916 0.787832C11.2447 -0.312296 8.71676 -0.252289 7.13288 0.917846L1.87763 4.8283C0.828673 5.60839 0 7.20857 0 8.46867V15.3695C0 17.9198 2.17133 20 4.84616 20H16.1538C18.8287 20 21 17.9298 21 15.3795V8.59868C21 7.24858 20.0874 5.58839 18.9336 4.8183ZM11.2867 15.9995C11.2867 16.4096 10.9301 16.7496 10.5 16.7496C10.0699 16.7496 9.71327 16.4096 9.71327 15.9995V12.9992C9.71327 12.5891 10.0699 12.2491 10.5 12.2491C10.9301 12.2491 11.2867 12.5891 11.2867 12.9992V15.9995Z" fill="black"/>
</svg>
