<svg width="19" height="18" viewBox="0 0 19 18" fill="none" xmlns="http://www.w3.org/2000/svg">
<path d="M7.72 13.7198V15.6218C7.72 16.5191 8.47214 17.2464 9.4 17.2464C10.3279 17.2464 11.08 16.5191 11.08 15.6218V13.7198M9.4 1V1.81232M1.84 9.12322H1M3.94 3.84313L3.43592 3.35565M14.86 3.84313L15.3642 3.35565M17.8 9.12322H16.96M14.44 9.12322C14.44 11.815 12.1835 13.9971 9.4 13.9971C6.61648 13.9971 4.36 11.815 4.36 9.12322C4.36 6.43142 6.61648 4.24929 9.4 4.24929C12.1835 4.24929 14.44 6.43142 14.44 9.12322Z" stroke="#E27A3F" stroke-linecap="round" stroke-linejoin="round"/>
</svg>
