<svg width="18" height="18" viewBox="0 0 18 18" fill="none" xmlns="http://www.w3.org/2000/svg">
<path d="M13.4444 6.33328C13.4444 5.87833 13.2708 5.42338 12.9237 5.07626C12.5766 4.72912 12.1216 4.55556 11.6667 4.55556M11.6667 11.6667C14.6122 11.6667 17 9.27884 17 6.33333C17 3.38781 14.6122 1 11.6667 1C8.72116 1 6.33333 3.38781 6.33333 6.33333C6.33333 6.5766 6.34962 6.81607 6.38116 7.0507C6.43305 7.43662 6.45899 7.6296 6.44153 7.75164C6.42333 7.87884 6.40018 7.94729 6.3375 8.05947C6.27733 8.16711 6.1713 8.27316 5.95923 8.48524L1.41656 13.0279C1.26283 13.1816 1.18596 13.2585 1.13099 13.3482C1.08225 13.4277 1.04634 13.5144 1.02456 13.6052C1 13.7075 1 13.8162 1 14.0335V15.5778C1 16.0756 1 16.3245 1.09688 16.5147C1.18211 16.682 1.31809 16.8179 1.48534 16.9031C1.67548 17 1.9244 17 2.42222 17H4.55556V15.2222H6.33333V13.4444H8.11111L9.51476 12.0408C9.72684 11.8287 9.83289 11.7227 9.94053 11.6625C10.0527 11.5998 10.1212 11.5766 10.2484 11.5585C10.3704 11.541 10.5634 11.5669 10.9493 11.6188C11.1839 11.6504 11.4234 11.6667 11.6667 11.6667Z" stroke="#010101" stroke-width="1.5" stroke-linecap="round" stroke-linejoin="round"/>
</svg>
