<svg width="65" height="23" viewBox="0 0 65 23" fill="none" xmlns="http://www.w3.org/2000/svg">
<path d="M64.2829 4.43164H62.6836V18.4961H64.2829V4.43164Z" fill="#014E64"/>
<path d="M33.68 18.8205C32.9516 18.8212 32.226 18.7289 31.521 18.5459C30.8385 18.3739 30.1888 18.0912 29.5978 17.709C28.9988 17.3272 28.5096 16.7959 28.1784 16.1675C27.8472 15.539 27.6856 14.8352 27.7093 14.1252H29.3086C29.3086 14.1745 29.3246 14.3171 29.3579 14.549C29.4087 14.8349 29.4984 15.1125 29.6245 15.374C29.7908 15.7237 30.024 16.0375 30.3108 16.2976C30.6956 16.6369 31.1467 16.8924 31.6356 17.0479C32.2007 17.2478 32.9248 17.3478 33.808 17.3478C34.4226 17.3644 35.0354 17.2742 35.6192 17.0812C36.0281 16.9459 36.4031 16.7241 36.7187 16.4309C36.948 16.2124 37.1295 15.9487 37.2518 15.6565C37.3392 15.4548 37.3897 15.239 37.401 15.0195C37.4179 14.4366 37.2598 13.9666 36.9266 13.6094C36.5547 13.226 36.0983 12.9348 35.5938 12.7591C34.993 12.5382 34.3803 12.3509 33.7586 12.1981C33.0923 12.0319 32.4303 11.8542 31.7729 11.665C31.1428 11.4853 30.5342 11.2377 29.9577 10.9266C29.4262 10.6432 28.9782 10.2255 28.6582 9.71516C28.3419 9.20694 28.2007 8.56144 28.2344 7.77868C28.2544 7.06768 28.5292 6.38754 29.0087 5.86219C29.5453 5.29429 30.215 4.86919 30.9572 4.62541C31.841 4.32333 32.7701 4.17546 33.704 4.18827C34.6123 4.17765 35.5132 4.35176 36.3522 4.70004C37.1251 5.02098 37.7917 5.55363 38.2753 6.23669C38.7578 6.92084 38.9826 7.77024 38.9497 8.7849H37.377C37.409 8.15229 37.2922 7.63607 37.0265 7.23625C36.7676 6.84555 36.416 6.52503 36.003 6.30333C35.601 6.08057 35.1686 5.91759 34.7196 5.81954C34.3381 5.73598 33.9492 5.69133 33.5587 5.68627C32.5094 5.68627 31.6476 5.89418 30.9732 6.30999C30.2988 6.72581 29.9434 7.26735 29.907 7.93461C29.907 8.51746 30.0736 8.98348 30.4068 9.33266C30.7793 9.70833 31.2323 9.99451 31.7315 10.1696C32.3297 10.391 32.943 10.5692 33.5667 10.7027C34.2411 10.8538 34.9075 11.0244 35.5658 11.2145C36.1943 11.3945 36.8015 11.6416 37.377 11.9515C37.9112 12.2368 38.3593 12.6596 38.6751 13.1763C38.9914 13.6925 39.1332 14.35 39.1003 15.1488C39.0865 15.8817 38.812 16.5857 38.326 17.1345C37.7996 17.7068 37.1385 18.1383 36.4028 18.39C35.5274 18.6918 34.6058 18.8375 33.68 18.8205Z" fill="#014E64"/>
<path d="M49.9435 18.4948H51.6454L46.621 4.43164H43.9741L39.0283 18.4948H40.7262L42.2469 14.0967H48.4322L49.9435 18.4948ZM42.716 12.7493L45.3495 5.13L47.9697 12.7493H42.716Z" fill="#014E64"/>
<path d="M52.3555 18.2442V4.43164H53.9548V18.2442H52.3555ZM52.3555 18.4948V17.0954H61.7473V18.4948H52.3555Z" fill="#014E64"/>
<path d="M9.84263 6.23352C10.2008 6.46257 10.6031 6.61377 11.0234 6.67732V8.49652H11.9297V6.67732C12.2709 6.61966 12.6001 6.50571 12.9039 6.34014C13.1902 6.18604 13.4401 5.97246 13.637 5.71375C13.9339 5.30895 14.0949 4.82041 14.0968 4.31837C14.111 3.67933 13.9673 3.04665 13.6783 2.47651C13.2087 1.55102 12.5417 0.73985 11.7245 0.100232C11.6481 0.0337626 11.5494 -0.0012755 11.4482 0.00218737C11.3471 0.00565023 11.251 0.0473562 11.1794 0.11889L10.9541 0.3228C10.7889 0.469402 10.6196 0.620001 10.457 0.783929C9.93022 1.30489 9.50176 1.91665 9.19226 2.5898C8.86451 3.25656 8.75004 4.00807 8.8644 4.74218C8.91165 5.04615 9.02338 5.3365 9.19211 5.59372C9.36083 5.85095 9.58264 6.0691 9.84263 6.23352ZM11.0234 3.30148V5.76972C10.9621 5.75773 10.9088 5.7444 10.8595 5.72974C10.6155 5.66436 10.3883 5.54758 10.1931 5.38723C9.94339 5.17628 9.78133 4.87972 9.73868 4.55559C9.66408 4.02458 9.74848 3.48336 9.98124 3.00028C10.307 2.29919 10.7707 1.67095 11.3446 1.1531C11.3806 1.11845 11.4166 1.08646 11.4566 1.05048C12.1749 1.70486 12.6561 2.34857 12.9626 3.07225C13.1428 3.47826 13.2228 3.92163 13.1958 4.36501C13.1478 5.02472 12.816 5.45919 12.1789 5.68976C12.0953 5.72032 12.0098 5.74569 11.923 5.76573V3.30681L11.0234 3.30148Z" fill="#5BBA47"/>
<path d="M14.0498 6.6036C14.1416 7.01888 14.3196 7.41026 14.5722 7.75242L13.2861 9.03985L13.9285 9.67691L15.2106 8.39347C15.494 8.59509 15.8094 8.74739 16.1435 8.84394C16.4548 8.93745 16.7825 8.9629 17.1044 8.91857C17.6014 8.84173 18.0608 8.60828 18.4159 8.2522C18.8782 7.81035 19.2239 7.2609 19.4221 6.65291C19.744 5.66515 19.8455 4.61881 19.7193 3.5876C19.7122 3.48648 19.667 3.39184 19.5927 3.32281C19.5185 3.25378 19.4208 3.21551 19.3195 3.21576L18.9929 3.20377C18.777 3.19177 18.5571 3.18111 18.3266 3.17978C17.5855 3.17573 16.8499 3.30623 16.1555 3.56494C15.4528 3.80629 14.842 4.25928 14.407 4.8617C14.2273 5.11012 14.1026 5.39391 14.041 5.69423C13.9794 5.99454 13.9824 6.30453 14.0498 6.6036ZM17.5922 6.00653L16.9538 5.36948L15.2133 7.11137C15.18 7.0594 15.1506 7.01275 15.1253 6.9661C14.9998 6.7483 14.9225 6.50604 14.8988 6.25575C14.8714 5.92975 14.9665 5.60526 15.1653 5.34549C15.488 4.91607 15.9303 4.59153 16.4367 4.41257C17.0911 4.15801 17.8121 4.05139 18.7024 4.06872L18.853 4.07538C18.8983 5.04562 18.7837 5.83994 18.4892 6.57028C18.3303 6.98498 18.0739 7.35528 17.7415 7.6498C17.2404 8.08294 16.6993 8.15358 16.0862 7.86837C16.005 7.82957 15.9266 7.78503 15.8517 7.7351L17.5922 6.00653Z" fill="#5BBA47"/>
<path d="M22.8806 11.1673L22.6766 10.9421C22.5434 10.7875 22.3834 10.6129 22.2155 10.4463C21.6941 9.92015 21.0819 9.49257 20.4083 9.18423C19.7406 8.85966 18.9891 8.74845 18.2559 8.8657C17.9523 8.91313 17.6623 9.02466 17.4052 9.19287C17.1481 9.36108 16.9297 9.58212 16.7646 9.84127C16.5365 10.1998 16.3858 10.602 16.3221 11.0221H14.5029V11.923H16.3275C16.385 12.2644 16.4994 12.5937 16.666 12.8973C16.8199 13.1832 17.0335 13.4327 17.2924 13.6289C17.6973 13.9255 18.1858 14.086 18.6877 14.0874H18.8024C19.4046 14.0823 19.9975 13.9382 20.5349 13.6662C21.4601 13.1956 22.2708 12.5277 22.9099 11.7098C22.9742 11.6323 23.0069 11.5334 23.0015 11.4328C22.996 11.3323 22.9529 11.2375 22.8806 11.1673ZM19.6926 11.9217V11.0194H17.2297C17.2431 10.9568 17.255 10.9035 17.2697 10.8542C17.3339 10.6097 17.4508 10.3823 17.6122 10.1878C17.8222 9.93731 18.1185 9.77467 18.4425 9.73198C18.9733 9.65704 19.5143 9.74049 19.9978 9.97188C20.7002 10.2968 21.3294 10.7606 21.8477 11.3353L21.9503 11.4459C21.2959 12.1656 20.6522 12.6454 19.9299 12.9532C19.5238 13.1335 19.0806 13.2139 18.6371 13.1878C17.9707 13.1411 17.5429 12.8093 17.3044 12.1736C17.2736 12.09 17.2482 12.0045 17.2284 11.9177L19.6926 11.9217Z" fill="#5BBA47"/>
<path d="M18.1417 14.4127C17.8936 14.2318 17.6098 14.1059 17.3093 14.0431C17.0087 13.9804 16.6983 13.9823 16.3985 14.0488C15.983 14.1408 15.5916 14.3193 15.2497 14.5726L14.0022 13.3251L13.9622 13.2852L13.3252 13.9235L14.614 15.2083C14.4128 15.492 14.2606 15.8073 14.1635 16.1412C14.0713 16.4527 14.0463 16.7803 14.0902 17.1021C14.1677 17.5988 14.4011 18.0581 14.7566 18.4136C15.1988 18.875 15.7482 19.2202 16.3559 19.4184C17.0521 19.6511 17.7822 19.7663 18.5162 19.7596C18.8081 19.7596 19.108 19.7436 19.4185 19.713C19.5194 19.7056 19.6137 19.6602 19.6824 19.586C19.7512 19.5118 19.7893 19.4143 19.789 19.3132L19.801 19.0853V19.0093C19.813 18.8027 19.8263 18.5682 19.8237 18.3323C19.828 17.5912 19.6975 16.8555 19.4385 16.1612C19.1965 15.4588 18.7437 14.8481 18.1417 14.4127ZM15.8921 15.2123C15.944 15.1777 15.9907 15.1483 16.0373 15.123C16.2551 14.9973 16.4974 14.92 16.7477 14.8964C17.0738 14.8684 17.3985 14.9635 17.6579 15.163C18.0873 15.4851 18.4119 15.927 18.5909 16.4331C18.8566 17.1576 18.9739 17.928 18.936 18.6988C18.936 18.7494 18.936 18.7987 18.9294 18.8494C17.9578 18.896 17.1648 18.7814 16.4345 18.4882C16.0198 18.3293 15.6495 18.0729 15.355 17.7405C14.9205 17.2407 14.8485 16.6996 15.1337 16.0853C15.1731 16.0043 15.2176 15.926 15.267 15.8507L16.9663 17.5459L17.0062 17.5873L17.6446 16.9475L15.8921 15.2123Z" fill="#5BBA47"/>
<path d="M13.1641 16.7662C12.805 16.5385 12.4024 16.3883 11.982 16.3251V14.5059H11.077V16.3264C10.7356 16.3837 10.4062 16.4982 10.1028 16.6649C9.81683 16.8194 9.56733 17.0335 9.37111 17.2926C9.07475 17.6976 8.91467 18.1862 8.91398 18.688C8.90023 19.3275 9.0454 19.9603 9.33646 20.5299C9.80759 21.454 10.4754 22.2637 11.2929 22.9021C11.3695 22.9688 11.4686 23.0039 11.5701 23.0002C11.6716 22.9964 11.7678 22.9543 11.8394 22.8822L12.0166 22.7209L12.0712 22.6716C12.2338 22.5263 12.4018 22.377 12.559 22.2158C13.0856 21.6942 13.5132 21.0814 13.8211 20.4072C14.1456 19.7399 14.2572 18.9891 14.141 18.2562C14.0933 17.9527 13.9815 17.6629 13.8131 17.4059C13.6446 17.149 13.4234 16.9309 13.1641 16.7662ZM11.0824 17.238V19.6969H11.9846V17.234C12.0459 17.246 12.0992 17.258 12.1512 17.2726C12.3949 17.3387 12.622 17.4554 12.8176 17.6152C13.0682 17.8252 13.2313 18.1213 13.2747 18.4455C13.3496 18.9762 13.2661 19.5172 13.0348 20.0008C12.7074 20.7049 12.2409 21.3354 11.6634 21.8546L11.5515 21.9559C10.8318 21.3029 10.352 20.6605 10.0428 19.9381C9.8619 19.5323 9.78101 19.0889 9.80692 18.6454C9.85356 17.979 10.1854 17.5512 10.8211 17.3126C10.9066 17.2823 10.9938 17.2574 11.0824 17.238Z" fill="#5BBA47"/>
<path d="M8.95476 16.4029C8.86276 15.9874 8.6843 15.596 8.43099 15.254L9.71442 13.9653L9.07604 13.3242L7.79794 14.6183C7.51396 14.418 7.1987 14.2662 6.86502 14.1692C6.55358 14.0766 6.22587 14.052 5.90411 14.0972C5.40779 14.1748 4.94899 14.4081 4.59402 14.7636C4.13282 15.2058 3.78808 15.7552 3.59047 16.3629C3.26972 17.3509 3.17007 18.3974 3.2986 19.4282C3.30569 19.5293 3.35093 19.6239 3.42515 19.693C3.49938 19.762 3.59705 19.8003 3.69842 19.8L4.00228 19.8147C4.20619 19.8253 4.41677 19.8373 4.63001 19.8373H4.67932C5.42004 19.8402 6.15516 19.7088 6.84902 19.4495C7.55202 19.2051 8.16259 18.75 8.59758 18.1461C8.77757 17.8976 8.90253 17.6136 8.96411 17.313C9.0257 17.0124 9.02251 16.7021 8.95476 16.4029ZM5.45497 16.9653L5.41499 17.0066L6.05338 17.6423L7.78594 15.8977C7.81926 15.9484 7.84858 15.995 7.87524 16.0417C8.00001 16.2598 8.07722 16.5019 8.1018 16.752C8.1299 17.0781 8.0348 17.4029 7.83525 17.6623C7.51386 18.0919 7.07233 18.4165 6.56648 18.5952C5.84246 18.8628 5.07177 18.9811 4.30082 18.9431L4.15022 18.9364C4.10357 17.9662 4.21686 17.1719 4.51006 16.4415C4.66791 16.0262 4.92399 15.6554 5.2564 15.3607C5.75484 14.9275 6.29594 14.8542 6.91166 15.1381C6.99264 15.1774 7.07099 15.2219 7.14623 15.2714L5.45497 16.9653Z" fill="#5BBA47"/>
<path d="M4.74627 14.1483C5.04958 14.1006 5.33923 13.9888 5.59593 13.8203C5.85263 13.6519 6.07047 13.4307 6.23494 13.1714C6.46299 12.8135 6.61328 12.4116 6.67608 11.9919H8.49528V11.0896H6.67608C6.61713 10.747 6.50089 10.4168 6.33223 10.1127C6.17736 9.827 5.96282 9.57791 5.70318 9.3824C5.29865 9.08637 4.81041 8.92674 4.30913 8.92661C3.66974 8.91342 3.037 9.05855 2.46728 9.34909C1.5436 9.82151 0.734738 10.4907 0.0976592 11.3096C0.0313634 11.3861 -0.00344144 11.4849 0.00026886 11.586C0.00397916 11.6872 0.0459285 11.7832 0.117651 11.8546L0.324226 12.0825C0.470827 12.2465 0.621428 12.4144 0.784022 12.5743C1.30811 13.1012 1.92363 13.5284 2.60055 13.8351C3.09528 14.0669 3.63359 14.1909 4.17985 14.1989C4.36976 14.1983 4.55926 14.1814 4.74627 14.1483ZM3.30424 11.095V11.9919H5.76848C5.75649 12.0519 5.74316 12.1065 5.7285 12.1572C5.66414 12.4013 5.54775 12.6286 5.38732 12.8235C5.17763 13.0739 4.88199 13.237 4.55835 13.2807C4.02647 13.3559 3.48422 13.2715 3.00038 13.0381C2.29827 12.7145 1.66865 12.2526 1.14919 11.6801L1.04657 11.5681C1.69828 10.8484 2.34067 10.3686 3.06435 10.0568C3.47007 9.8769 3.91261 9.7956 4.35578 9.81954C5.02215 9.86619 5.45129 10.198 5.68852 10.8324C5.7189 10.9166 5.74426 11.0025 5.76449 11.0896L3.30424 11.095Z" fill="#5BBA47"/>
<path d="M4.85125 8.60046C5.10008 8.78139 5.38463 8.90718 5.68591 8.96946C5.9872 9.03174 6.2983 9.02907 6.59847 8.96164C7.01341 8.86857 7.40429 8.6897 7.74597 8.43654L9.0334 9.7253L9.66778 9.08558L8.37769 7.80215C8.57795 7.51834 8.72931 7.20301 8.82549 6.86923C8.91781 6.55774 8.94235 6.23009 8.89746 5.90832C8.81972 5.41206 8.58638 4.95332 8.23108 4.59823C7.78837 4.1379 7.2391 3.79369 6.63179 3.59601C5.64344 3.27671 4.59711 3.17799 3.56648 3.30681C3.46536 3.3139 3.37072 3.35914 3.30169 3.43336C3.23266 3.50759 3.1944 3.60526 3.19464 3.70663C3.19464 3.80792 3.18532 3.90921 3.17998 4.01049C3.16799 4.21707 3.156 4.45163 3.15733 4.68753C3.15473 5.42878 3.28658 6.16437 3.54649 6.85857C3.79227 7.55938 4.24782 8.16755 4.85125 8.60046ZM5.35236 6.06025L7.09825 7.79282C7.04761 7.82747 7.00096 7.85546 6.95432 7.88211C6.73613 8.00706 6.49411 8.08471 6.24396 8.11001C5.91795 8.13745 5.59342 8.04242 5.3337 7.84346C4.90463 7.52214 4.58007 7.0812 4.40078 6.57603C4.13408 5.85175 4.01534 5.08133 4.0516 4.31036C4.0516 4.25972 4.0516 4.21041 4.0516 4.15976C5.02317 4.11045 5.81615 4.22507 6.5465 4.51694C6.96137 4.67561 7.33238 4.93102 7.62868 5.26194C8.06316 5.76172 8.13646 6.30281 7.85125 6.91721C7.81194 6.99819 7.76742 7.07654 7.71798 7.15177L5.97475 5.4192L5.35236 6.06025Z" fill="#5BBA47"/>
<path d="M24.3865 1.57641C24.3744 1.99661 24.199 2.39554 23.8975 2.68849C23.596 2.98143 23.1922 3.14531 22.7718 3.14531C22.3515 3.14531 21.9477 2.98143 21.6462 2.68849C21.3447 2.39554 21.1693 1.99661 21.1572 1.57641C21.1572 0.702134 21.8236 0.00111135 22.7725 0.00111135C22.9833 -0.00686244 23.1936 0.0281379 23.3904 0.103983C23.5873 0.179829 23.7667 0.294933 23.9177 0.442294C24.0686 0.589655 24.1881 0.766191 24.2686 0.961162C24.3492 1.15613 24.3893 1.36546 24.3865 1.57641ZM24.1386 1.57641C24.1275 1.22132 23.9786 0.884487 23.7235 0.637229C23.4684 0.389971 23.1271 0.251703 22.7718 0.251703C22.4166 0.251703 22.0753 0.389971 21.8202 0.637229C21.5651 0.884487 21.4162 1.22132 21.4051 1.57641C21.4162 1.93151 21.5651 2.26834 21.8202 2.5156C22.0753 2.76286 22.4166 2.90113 22.7718 2.90113C23.1271 2.90113 23.4684 2.76286 23.7235 2.5156C23.9786 2.26834 24.1275 1.93151 24.1386 1.57641ZM23.2456 1.82564L23.6455 2.35874V2.37206H23.223L22.8578 1.87761H22.5446V2.3654H22.1448V0.776768H22.9671C23.0418 0.772745 23.1166 0.784123 23.1868 0.810197C23.257 0.836272 23.321 0.876487 23.375 0.928347C23.429 0.980207 23.4718 1.04261 23.5006 1.11167C23.5295 1.18074 23.5439 1.25501 23.5428 1.32986C23.5462 1.43232 23.52 1.53359 23.4673 1.62153C23.4146 1.70946 23.3376 1.78033 23.2456 1.82564ZM22.5459 1.53777H22.9204C22.9476 1.53985 22.9749 1.53617 23.0005 1.52697C23.0262 1.51777 23.0496 1.50326 23.0692 1.48438C23.0888 1.46551 23.1042 1.4427 23.1144 1.41744C23.1246 1.39219 23.1294 1.36507 23.1284 1.33785C23.1287 1.31134 23.1234 1.28505 23.1128 1.26074C23.1022 1.23643 23.0866 1.21466 23.0669 1.19687C23.0472 1.17909 23.024 1.16571 22.9987 1.15761C22.9735 1.14952 22.9468 1.1469 22.9204 1.14994H22.5459V1.53777Z" fill="#5BBA47"/>
</svg>
