<svg width="16" height="16" viewBox="0 0 16 16" fill="none" xmlns="http://www.w3.org/2000/svg">
<path d="M7.6281 15.2562C3.42334 15.2562 0 11.8329 0 7.6281C0 3.42334 3.42334 0 7.6281 0C11.8329 0 15.2562 3.42334 15.2562 7.6281C15.2562 11.8329 11.8329 15.2562 7.6281 15.2562ZM7.6281 1.11631C4.03359 1.11631 1.11631 4.04103 1.11631 7.6281C1.11631 11.2152 4.03359 14.1399 7.6281 14.1399C11.2226 14.1399 14.1399 11.2152 14.1399 7.6281C14.1399 4.04103 11.2226 1.11631 7.6281 1.11631Z" fill="#292D32"/>
<path d="M15.4417 16.0013C15.3003 16.0013 15.1589 15.9492 15.0472 15.8376L13.5588 14.3492C13.343 14.1333 13.343 13.7761 13.5588 13.5603C13.7747 13.3445 14.1319 13.3445 14.3477 13.5603L15.8361 15.0487C16.0519 15.2645 16.0519 15.6217 15.8361 15.8376C15.7245 15.9492 15.5831 16.0013 15.4417 16.0013Z" fill="#292D32"/>
</svg>
