<svg width="22" height="22" viewBox="0 0 22 22" fill="none" xmlns="http://www.w3.org/2000/svg">
<path d="M8 21H14C19 21 21 19 21 14V8C21 3 19 1 14 1H8C3 1 1 3 1 8V14C1 19 3 21 8 21Z" stroke="#292D32" stroke-width="1.5" stroke-linecap="round" stroke-linejoin="round"/>
<path d="M14 16V13" stroke="#292D32" stroke-width="1.5" stroke-miterlimit="10" stroke-linecap="round" stroke-linejoin="round"/>
<path d="M14 7V6" stroke="#292D32" stroke-width="1.5" stroke-miterlimit="10" stroke-linecap="round" stroke-linejoin="round"/>
<path d="M14 11C15.1045 11 16 10.1045 16 9.00002C16 7.89542 15.1045 7 14 7C12.8954 7 12 7.89542 12 9.00002C12 10.1045 12.8954 11 14 11Z" stroke="#292D32" stroke-width="1.5" stroke-miterlimit="10" stroke-linecap="round" stroke-linejoin="round"/>
<path d="M8 16V15" stroke="#292D32" stroke-width="1.5" stroke-miterlimit="10" stroke-linecap="round" stroke-linejoin="round"/>
<path d="M8 9V6" stroke="#292D32" stroke-width="1.5" stroke-miterlimit="10" stroke-linecap="round" stroke-linejoin="round"/>
<path d="M7.99998 15C9.10455 15 10 14.1045 10 13C10 11.8955 9.10455 11 7.99998 11C6.89542 11 6 11.8955 6 13C6 14.1045 6.89542 15 7.99998 15Z" stroke="#292D32" stroke-width="1.5" stroke-miterlimit="10" stroke-linecap="round" stroke-linejoin="round"/>
</svg>
