<svg width="20" height="22" viewBox="0 0 20 22" fill="none" xmlns="http://www.w3.org/2000/svg">
<path d="M19 7.58003V14.42C19 15.54 18.4056 16.58 17.4447 17.15L11.5603 20.58C10.5993 21.14 9.41055 21.14 8.43972 20.58L2.55531 17.15C1.59439 16.59 1 15.55 1 14.42V7.58003C1 6.46003 1.59439 5.41999 2.55531 4.84999L8.43972 1.42C9.40065 0.86 10.5894 0.86 11.5603 1.42L17.4447 4.84999C18.4056 5.41999 19 6.45003 19 7.58003Z" stroke="#292D32" stroke-width="1.5" stroke-linecap="round" stroke-linejoin="round"/>
<path d="M9.49998 11C10.8808 11 12 9.88066 12 8.49994C12 7.11924 10.8808 6 9.49998 6C8.11928 6 7 7.11924 7 8.49994C7 9.88066 8.11928 11 9.49998 11Z" stroke="#292D32" stroke-width="1.5" stroke-linecap="round" stroke-linejoin="round"/>
<path d="M13 16C13 14.3436 11.4338 13 9.5 13C7.56625 13 6 14.3436 6 16" stroke="#292D32" stroke-width="1.5" stroke-linecap="round" stroke-linejoin="round"/>
</svg>
